<?xml version="1.0" standalone="no"?><!DOCTYPE svg PUBLIC "-//W3C//DTD SVG 1.1//EN" "http://www.w3.org/Graphics/SVG/1.1/DTD/svg11.dtd"><svg t="1568716700210" class="icon" viewBox="0 0 1024 1024" version="1.1" xmlns="http://www.w3.org/2000/svg" p-id="3860" xmlns:xlink="http://www.w3.org/1999/xlink" width="64" height="64"><defs><style type="text/css"></style></defs><path d="M219 150c53.855 0 99.063 37.02 111.567 87H746l0.394 0.001L747 237c83.395 0 151 67.605 151 151s-67.605 151-151 151l-0.637-0.002L746 539H345l-0.25 0.004-0.184 0.008L343 539c-52.467 0-95 42.533-95 95s42.533 95 95 95c0.523 0 1.045-0.004 1.566-0.012l0.216 0.01 0.218 0.002h415.352l0.305-88.03c0.03-8.837 7.219-15.976 16.055-15.945a16 16 0 0 1 9.812 3.404l146.205 114.528c6.956 5.45 8.178 15.506 2.729 22.462a16 16 0 0 1-2.68 2.69L785.774 884.19c-6.935 5.477-16.996 4.294-22.472-2.641a16 16 0 0 1-3.443-9.971l0.299-86.577H345c-0.196 0-0.392-0.002-0.587-0.006L343 785c-83.395 0-151-67.605-151-151 0-81.617 64.753-148.11 145.688-150.908 0.763-0.06 1.534-0.092 2.312-0.092h405c0.146 0 0.29-0.004 0.434-0.012 0.521 0.008 1.043 0.012 1.566 0.012 52.467 0 95-42.533 95-95s-42.533-95-95-95l-1.566 0.012-0.185-0.008L745 293l-414.433 0.002C318.063 342.982 272.854 380 219 380c-63.513 0-115-51.487-115-115s51.487-115 115-115z m0 56c-32.585 0-59 26.415-59 59s26.415 59 59 59 59-26.415 59-59-26.415-59-59-59z" fill="#1296db" fill-opacity=".65" p-id="3861"></path></svg>