<?xml version="1.0" standalone="no"?><!DOCTYPE svg PUBLIC "-//W3C//DTD SVG 1.1//EN" "http://www.w3.org/Graphics/SVG/1.1/DTD/svg11.dtd"><svg t="1568716637162" class="icon" viewBox="0 0 1024 1024" version="1.1" xmlns="http://www.w3.org/2000/svg" p-id="2093" xmlns:xlink="http://www.w3.org/1999/xlink" width="64" height="64"><defs><style type="text/css"></style></defs><path d="M1024 486.4L665.6 332.8l143.274667-102.4A407.893333 407.893333 0 0 0 512 102.4a409.685333 409.685333 0 0 0-401.493333 328.277333l-95.573334-39.594666A511.744 511.744 0 0 1 512 0c151.381333 0 286.976 66.133333 380.672 170.581333L1024 76.8v409.6zM215.125333 793.6A407.893333 407.893333 0 0 0 512 921.6a409.6 409.6 0 0 0 401.834667-330.496l95.488 40.789333A511.744 511.744 0 0 1 512 1024a510.122667 510.122667 0 0 1-380.672-170.581333L0 947.2V537.6l358.4 153.6-143.274667 102.4z" fill="#1296db" p-id="2094"></path></svg>